<?xml version="1.0" encoding="UTF-8"?>
<svg id="Layer_2" data-name="Layer 2" xmlns="http://www.w3.org/2000/svg" viewBox="0 0 212.82 140.81">
  <defs>
    <style>
      .cls-1 {
        fill: currentColor;
      }
    </style>
  </defs>
  <g id="Layer_1-2" data-name="Layer 1">
    <g>
      <g>
        <path class="cls-1" d="M40.07,3.4l-1.1,11h-1.83C31.36,2.94,28.52,2.84,16.87,2.84c-6.69,0-6.69,4.58-6.69,8.34v20.91c0,4.68,.27,7.98,3.94,3.85l4.58-5.23h5.23q3.94,0,7.98-9.72l1.65,.73v18.61l-1.65,.73q-4.03-9.26-7.98-9.26h-4.77c-7.7,8.99-8.99,10.45-8.99,18.61v6.05q0,3.76,3.67,7.79l-.83,1.65H.83l-.83-1.65q3.76-4.03,3.76-7.79V11.19Q3.76,7.43,0,3.4L.73,1.74H38.97l1.1,1.65Z"/>
        <path class="cls-1" d="M96.37,43.65c-.64-1.47-1.19-3.67-3.76-3.67h-1.37q-3.95,0-1.84-2.57l1.84-2.29c7.33-9.08,7.52-8.99,13.02-13.3l-.92-1.74h-9.63l-.82,1.74q5.04,3.86-3.3,13.48l-7.71,8.9q-5.95,6.87-5.95-.19V6.42c0-4.22,0-6.42-4.22-6.42h-5.23l-.82,1.74q3.85,4.13,3.85,7.98V56.48c0,2.58,0,3.55-.92,4.83-1.28-1.62-1.28-2.44-1.28-5.1v-18.71c0-15.03-8.35-17.97-14.49-17.97-11.83,0-18.25,6.97-18.25,6.97l2.2,6.14h2.3s5.96-14.39,16.22-11.73c4.96,1.28,5.41,7.42,5.41,10.08,0,3.03-.55,4.13-4.49,5.69-10.36,4.12-17.33,2.11-22,9.44-3.12,4.86-2.66,14.4,3.2,18.16,7.25,4.67,17.61-2.66,19.26-3.67,2.75-1.65,4.03-3.12,4.03,0,0,3.39,1.38,5.32,4.22,5.32h14.03l.73-1.56c-3.75-3.76-3.75-4.04-3.75-7.89,0-4.12-.1-4.12,6.87-11.64,4.49-4.86,4.49-4.95,9.63,5.68,4.86,10,4.58,10.55,2.02,13.76l.73,1.65h12.19l1.01-1.65c-4.12-3.58-4.4-4.04-12.01-20.63Zm-35.48,5.87c0,5.77,.09,7.15-5.87,10.81-4.77,2.94-9.9,2.57-13.02-1.37-2.93-3.67-3.12-9.81-.73-13.57,3.02-4.68,7.15-4.68,14.94-7.43,4.49-1.56,4.68,1.74,4.68,7.06v4.5Z"/>
        <path class="cls-1" d="M197.41,24.12c-5.22,4.03-5.13,2.56-5.13-.19,0-1.37-.37-3.85-2.66-3.85h-6.78l-.83,1.74q3.85,4.13,3.85,7.98v26.41c0,3.1,0,3.7-2.01,5.98-2.02-2.28-2.02-2.88-2.02-5.98v-18.71c0-15.03-8.35-17.97-14.49-17.97-11.83,0-18.25,6.97-18.25,6.97l2.2,6.14h2.3s5.96-14.39,16.23-11.73c4.95,1.28,5.41,7.42,5.41,10.08,0,3.03-.55,4.13-4.5,5.69-10.36,4.12-17.33,2.11-22,9.44-.11,.18-.22,.36-.33,.56,.16-1.21,.24-2.44,.24-3.68,0-12.83-8.53-22.92-20.64-22.92-3.94,0-6.78,.55-9.26,1.56-2.38,1.1-2.38,1.01-2.38-1.74V6.42c0-4.22,0-6.42-5.13-6.42h-4.31l-.83,1.74q3.85,4.13,3.85,7.98v56.21h4.77l1.19-2.39c3.12,1.65,7.8,3.3,12.1,3.3,8.81,0,15.72-5.87,18.84-13.97-.16,4.35,1.39,9.03,5.1,11.41,7.24,4.67,17.6-2.66,19.25-3.67,2.75-1.65,4.04-3.12,4.04,0,0,3.39,1.37,5.32,4.21,5.32h15.96l.82-1.74q-3.94-4.13-3.94-7.98v-21.27c0-4.31,0-5.41,3.67-8.35,10.08-8.25,12.28,4.5,12.28,4.5h2.3l2.29-7.8c-2.2-2.57-5.69-6.69-15.41,.83Zm-65.92,41.26c-7.79,1.28-15.13-4.13-15.13-11.37V29.25c0-2.38,.55-6.6,6.42-7.61,8.8-1.47,15.77,5.23,17.88,17.7,2.02,11.92-.55,24.57-9.17,26.04Zm43.92-15.86c0,5.77,.09,7.15-5.87,10.81-4.77,2.94-9.9,2.57-13.02-1.37-2.93-3.67-3.12-9.81-.73-13.57,3.02-4.68,7.15-4.68,14.94-7.43,4.5-1.56,4.68,1.74,4.68,7.06v4.5Z"/>
      </g>
      <g>
        <path class="cls-1" d="M48.41,91.39c-5.5-11.09-16.69-16.87-26.5-14.03-11.28,3.3-16.78,19.16-12.01,36.68,4.68,17.42,17.15,26.77,29.89,23.56,11-2.75,13.39-15.68,13.39-15.68l1.01,.18c-.73,5.13-5.78,18.71-22.74,18.71-18.25,0-30.07-14.4-30.07-33.01s12.1-33.01,29.34-33.01c13.85,0,21.91,7.15,21.91,7.15l-1.93,9.44h-2.29Z"/>
        <path class="cls-1" d="M82.71,97.26l-.61,2.09-.74,2.49-.94,3.21h-2.3s-2.2-12.74-12.28-4.49c-3.67,2.93-3.67,4.03-3.67,8.34v21.27q0,3.85,3.94,7.98l-.82,1.74h-12.57l-.82-1.74q3.85-4.13,3.85-7.98v-26.4q0-3.85-3.85-7.98l.82-1.74h6.79c2.29,0,2.66,2.47,2.66,3.85,0,2.75-.09,4.22,5.13,.18,9.72-7.52,13.21-3.39,15.41-.82Z"/>
        <path class="cls-1" d="M115.63,136.15c-2.02-2.28-2.02-2.88-2.02-5.98v-18.7c0-15.04-8.35-17.97-14.49-17.97-8.82,0-14.64,3.88-17.02,5.85l-.74,2.49,1.71,4.77h2.3s5.96-14.4,16.23-11.74c4.95,1.29,5.41,7.43,5.41,10.09,0,3.02-.55,4.12-4.5,5.68-10.36,4.13-17.33,2.11-22,9.45-3.12,4.86-2.66,14.39,3.21,18.15,7.24,4.68,17.6-2.66,19.25-3.67,2.75-1.65,4.04-3.11,4.04,0,0,3.4,1.37,5.32,4.21,5.32h5.41l.83-1.74c-.75-.81-1.35-1.45-1.83-2Zm-8.44-12.67c0,5.78,.09,7.15-5.87,10.82-4.77,2.93-9.9,2.57-13.02-1.38-2.93-3.66-3.12-9.81-.73-13.57,3.02-4.67,7.15-4.67,14.94-7.42,4.5-1.56,4.68,1.74,4.68,7.06v4.49Z"/>
        <path class="cls-1" d="M166.05,128.89c-.92,7.98-6.05,11.37-11,11-7.89-.55-9.44-7.52-9.44-15.59v-26.5q0-3.85-3.85-7.98l.37-.73c4.58-12.56-4.95-18.25-11.64-14.4-5.96,3.48-6.42,11.74-6.42,21.73v.09c0,2.66,.27,4.49,3.3,1.74l4.77-4.22h7.89v1.1h-7.34l-5.13,4.68c-3.3,3.03-3.48,4.95-3.48,9.9v20.45q0,3.85,3.94,7.98l-.83,1.74h-12.65l-.73-1.74q3.85-4.13,3.85-7.98v-32.92c0-19.62,10.09-24.67,16.69-24.94,7.06-.28,12.29,5.59,9.17,15.31h4.31c4.22,0,4.22,2.2,4.22,6.42,0,5.13,0,5.04,3.58,2.02l2.38-2.02h7.24v1.1h-6.69l-2.75,2.48q-3.76,3.39-3.76,11.28v13.02c0,8.34,.28,14.85,4.95,15.86,3.94,.83,7.52-2.84,8.34-8.99l.73,.09Z"/>
      </g>
      <path class="cls-1" d="M182.51,133.21c6.88-19.78,5.16-21.49-14.62-14.62,19.27-7.38,19.27-8.2,0-15.58,19.78,6.88,21.49,5.16,14.62-14.62,7.38,19.27,8.2,19.27,15.58,0-6.88,19.78-5.16,21.49,14.62,14.62-19.27,7.38-19.27,8.2,0,15.58-19.78-6.88-21.49-5.16-14.62,14.62-7.38-19.27-8.2-19.27-15.58,0Z"/>
    </g>
  </g>
</svg>